<svg height="1340pt" preserveAspectRatio="xMidYMid meet" viewBox="0 0 2005 1340" width="2005pt" xmlns="http://www.w3.org/2000/svg"><g transform="matrix(.1 0 0 -.1 0 1340)"><path fill="#ffffff" d="m6424 13390-3621-5-48-60c-154-192-450-525-1395-1570-566-627-943-1055-1039-1179l-44-57 39-44c21-25 350-387 729-805l690-759h293l292-1-641 723c-353 397-658 739-677 760l-36 37h1381 1381l54-82c84-126 122-190 371-623 307-534 409-696 495-787l36-38h223c123 0 223 3 223 8 0 4-198 345-439 757l-439 750 31 7c104 22 1133 18 1943-8l200-7 249-748 250-748 232-3c153-2 233 0 233 7 0 6-108 345-240 754s-238 746-236 749c3 2 648 7 1434 10l1429 5 6-393c4-216 7-558 7-760v-367l128-6c70-4 155-7 190-7h62v765 765h1435c967 0 1435-3 1435-10 0-6-101-340-225-743-124-402-228-742-232-755l-5-22 232 2 233 3 245 750c134 413 246 751 247 753 4 4 2158 23 2162 18 2-2-195-342-438-755-242-414-439-754-437-756 4-4 540 53 543 58 1 1 213 329 470 730l469 727h1345 1345l-31-32c-73-79-1313-1478-1313-1483 0-3 152-5 338-5h337l700 771c385 423 713 786 728 804l29 35-45 62c-60 84-197 242-413 478-392 426-440 479-534 595-54 66-115 136-135 155-21 19-101 107-178 195-78 88-288 322-468 520-381 419-617 689-702 798l-60 77-3601-2c-1981-2-5230-5-7222-8zm866-374c0-13-524-352-1120-723-1166-726-2177-1330-2196-1311-2 2-163 454-358 1004s-358 1007-362 1017c-6 16 104 17 2015 17 1112 0 2021-2 2021-4zm4097-11c-19-48-336-498-762-1080-378-517-599-820-616-846l-16-23-57 70c-228 273-1196 1610-1345 1857l-23 37h1412c1234 0 1411-2 1407-15zm5319-22c-11-58-221-683-341-1013-183-504-360-949-388-978-10-10-53 11-217 106-775 450-3043 1860-3075 1913-4 5 755 9 2011 9h2016zm-13508-1153c187-520 344-953 347-962 7-17-57-18-1244-18-688 0-1251 3-1251 6 0 18 368 428 730 814 456 486 1067 1116 1075 1108 2-2 156-428 343-948zm8655 823c248-377 1057-1741 1057-1784 0-8-1006-19-1802-19-373 0-678 4-678 8 0 11 83 148 151 248 191 283 1175 1674 1184 1674 2 0 41-57 88-127zm5626-237c932-989 1221-1300 1364-1470 37-43 67-83 67-88 0-9-1802-9-2230 1l-276 6 346 940c190 517 349 948 353 958 6 17 16 11 79-45 39-34 173-171 297-302zm-9116 140c45-65 185-263 311-440 450-630 760-1080 840-1218l27-48h-1245-1246l10 26c52 135 972 1683 1108 1863l26 35 43-50c24-27 81-103 126-168zm4432-121c412-247 1237-777 2012-1292 227-150 415-278 418-283 4-7-292-10-843-10h-850l-35 39c-106 117-597 930-919 1521-126 231-124 221-31 170 43-24 155-89 248-145zm-5326 133c-39-76-228-417-372-668-275-481-517-874-617-997l-42-53h-854c-470 0-854 3-854 8 1 9 7 14 245 173 725 487 2459 1579 2507 1579 5 0-1-19-13-42z"/><path fill="#ffffff" d="m7250 7370v-120l213-2 212-3 3-597 2-598h140 140v600 600h215 215v120 120h-570-570z"/><path fill="#ffffff" d="m8580 6770v-720h545 545v120 120h-400-400v200 200h360 360v120 120h-360-360v160 160h390 390v120 120h-535-535z"/><path fill="#ffffff" d="m10337 7483c-6-10-557-1424-557-1430 0-2 69-2 152-1l153 3 59 163 59 162h287 288l50-127c27-71 55-145 63-165l13-38h158 158l-13 33c-7 17-137 341-288 719l-274 688h-152c-83 0-154-3-156-7zm253-601c51-139 91-255 88-257-3-3-91-4-195-3l-190 3 95 263c53 144 98 259 102 255 4-5 49-122 100-261z"/><path fill="#ffffff" d="m11370 6770v-720h135 135l2 563 3 562 141-560 140-560 140-3 139-3 142 558 142 558v-557l1-558h135 135v720 720l-217-2-216-3-125-475c-68-261-127-478-131-483-4-4-65 211-136 478l-129 485h-218-218z"/><path fill="#ffffff" d="m570 7465c-141-32-232-79-331-172-106-100-178-230-210-378-21-95-16-314 10-408 63-238 244-415 471-463 57-12 108-15 210-11 135 6 208 20 295 57l45 19v76c0 41-2 75-5 75s-22-9-43-19c-100-51-280-78-402-61-216 30-374 192-415 424-19 111-19 161 0 272 39 222 182 387 382 439 124 32 333 11 442-45l41-20v89 89l-82 22c-107 29-311 37-408 15z"/><path fill="#ffffff" d="m2965 7465c-300-66-481-284-515-618-26-262 39-484 188-636 132-135 288-189 509-179 301 15 509 183 595 484 20 68 23 102 23 249 0 134-4 184-18 235-52 184-171 336-321 411-45 21-112 46-151 54-86 18-229 18-310 0zm304-154c126-39 207-111 267-236 46-95 64-187 64-326 0-332-149-531-426-570-362-50-622 282-550 701 37 213 156 369 325 427 87 30 232 32 320 4z"/><path fill="#ffffff" d="m13585 7469c-343-58-583-358-585-730-1-296 134-535 365-646 107-50 196-66 350-60 145 6 246 28 358 79l67 31v318 319h-235-235v-70-70h155 155l-2-202-3-203-56-22c-82-33-212-46-312-33-285 39-451 271-433 606 8 174 65 305 178 410 101 95 207 134 364 134 126 0 222-19 320-64l74-35v89 89l-55 20c-119 45-335 63-470 40z"/><path fill="#ffffff" d="m15775 7465c-333-69-535-378-512-780 12-205 72-349 197-476 123-125 262-179 460-179 202 0 349 59 474 190 84 88 133 177 167 306 29 108 32 355 5 459-59 229-214 402-416 466-86 27-277 34-375 14zm318-155c218-67 344-308 324-614-21-300-169-482-420-516-325-45-567 197-567 569 0 224 99 431 247 518 111 65 286 83 416 43z"/><path fill="#ffffff" d="m1350 6755v-705h80 80v300 300h86c194 0 223-25 424-359l145-241h97 97l-155 248c-185 294-222 344-274 374-22 13-40 26-40 30 0 3 21 14 48 22 99 33 190 115 228 205 8 19 19 65 25 102 19 125-17 234-103 315-100 94-194 114-524 114h-214zm550 523c95-48 141-144 121-254-14-72-43-126-88-162-64-50-116-62-278-62h-145v256 256l168-4c159-3 170-4 222-30z"/><path fill="#ffffff" d="m3850 7448c0-7 92-323 203-703l202-690 96-3 95-3 152 538c83 296 155 561 160 588l9 50 7-50c4-27 75-290 157-583s149-535 149-537c0-3 44-5 98-5h97l194 693c107 380 197 698 199 705 3 9-18 12-84 12h-89l-148-563c-82-309-154-584-160-612l-10-50-14 70c-7 39-80 313-162 610l-148 540h-79-78l-158-545c-87-300-164-574-172-610-14-68-20-66-31 10-3 25-74 293-158 595l-153 550-87 3c-66 2-87 0-87-10z"/><path fill="#ffffff" d="m5880 6755v-705h86 86l-4 604-3 603 30-52c17-29 190-300 385-603l355-551 103-1h102v705 705h-86-86l4-599 4-598-61 97c-33 54-204 323-380 599l-320 501h-107-108z"/><path fill="#ffffff" d="m14470 6755v-705h365 365v75 75h-285-285v630 630h-80-80z"/><path fill="#ffffff" d="m16870 6755v-705h228c248 0 321 10 415 55 77 36 150 108 184 180 25 54 28 70 28 170s-3 115-27 160c-14 28-44 67-65 87-41 40-138 88-178 88-37 0-30 13 20 38 112 54 175 152 183 282 8 141-48 240-171 300-83 40-161 50-409 50h-208zm459 544c104-22 154-77 159-178 5-82-9-130-51-177-58-67-149-94-319-94h-88v230 230h125c68 0 147-5 174-11zm-9-599c91-15 168-55 205-108 24-35 30-56 33-110 2-37-1-86-7-108-14-54-70-116-128-145-43-21-65-24-220-27l-173-4v256 256h113c61 0 141-5 177-10z"/><path fill="#ffffff" d="m18393 7443c-3-10-119-310-256-668-137-357-255-667-263-688l-13-38 91 3 91 3 70 198 70 197h298 298l41-107c22-60 57-150 77-200l35-93h90c68 0 89 3 85 13-9 22-499 1291-519 1345l-19 52h-85c-72 0-86-3-91-17zm230-568 104-280-240-3c-132-1-242 0-244 2-3 2 45 141 106 308 60 166 113 317 117 333 12 52 17 50 35-16 10-35 65-190 122-344z"/><path fill="#ffffff" d="m19320 6755v-705h365 365v75 75h-285-285v630 630h-80-80z"/><path fill="#ffffff" d="m5697 4863c-82-2-147-7-145-11 7-18 4473-4842 4480-4840 21 8 4472 4833 4461 4836-8 2-184-20-391-48l-377-52-36-36c-20-21-553-593-1184-1272s-1163-1251-1182-1270c-34-34-34-33 15 50 254 437 788 1338 944 1595 372 612 607 1023 593 1037-7 7-638-40-645-49-5-4-306-548-671-1207s-664-1195-666-1190c-1 5 177 556 396 1224l398 1215-231 3c-176 2-233-1-242-10-6-7-240-706-519-1553s-511-1546-515-1554c-16-31-23 659-17 1867l5 1262h-68c-37 0-122-3-188-7l-122-6-2-1545-3-1544-539 1533c-296 844-543 1542-548 1552-8 15-28 17-208 17-161 0-200-3-200-14 0-7 180-563 400-1236 221-672 400-1224 398-1225s-331 535-733 1192c-401 658-735 1201-741 1207-12 13-510 73-520 64-3-3 341-592 764-1309 422-717 781-1326 797-1354l29-50-53 45c-30 25-66 56-82 70-15 14-564 599-1219 1300-692 741-1206 1283-1226 1294-40 21-142 26-407 19z"/></g></svg>